<?xml version="1.0" encoding="UTF-8" standalone="no"?>
<!-- Created with Inkscape (http://www.inkscape.org/) -->

<svg
   xmlns:dc="http://purl.org/dc/elements/1.1/"
   xmlns:cc="http://creativecommons.org/ns#"
   xmlns:rdf="http://www.w3.org/1999/02/22-rdf-syntax-ns#"
   xmlns:svg="http://www.w3.org/2000/svg"
   xmlns="http://www.w3.org/2000/svg"
   xmlns:sodipodi="http://sodipodi.sourceforge.net/DTD/sodipodi-0.dtd"
   xmlns:inkscape="http://www.inkscape.org/namespaces/inkscape"
   width="62.569374mm"
   height="47.9552mm"
   viewBox="0 0 221.70251 169.92"
   id="svg2"
   version="1.1"
   inkscape:version="0.91 r13725"
   sodipodi:docname="logo.svg">
  <defs
     id="defs4" />
  <sodipodi:namedview
     id="base"
     pagecolor="#ffffff"
     bordercolor="#666666"
     borderopacity="1.0"
     inkscape:pageopacity="0.0"
     inkscape:pageshadow="2"
     inkscape:zoom="0.35"
     inkscape:cx="-350.42821"
     inkscape:cy="-286.49361"
     inkscape:document-units="px"
     inkscape:current-layer="layer1"
     showgrid="false"
     fit-margin-top="0"
     fit-margin-left="0"
     fit-margin-right="0"
     fit-margin-bottom="0"
     inkscape:window-width="1855"
     inkscape:window-height="1056"
     inkscape:window-x="65"
     inkscape:window-y="24"
     inkscape:window-maximized="1" />
  <metadata
     id="metadata7">
    <rdf:RDF>
      <cc:Work
         rdf:about="">
        <dc:format>image/svg+xml</dc:format>
        <dc:type
           rdf:resource="http://purl.org/dc/dcmitype/StillImage" />
        <dc:title></dc:title>
      </cc:Work>
    </rdf:RDF>
  </metadata>
  <g
     inkscape:label="Layer 1"
     inkscape:groupmode="layer"
     id="layer1"
     transform="translate(-281.1425,-75.948593)">
    <g
       style="font-style:normal;font-weight:normal;font-size:40px;line-height:125%;font-family:sans-serif;letter-spacing:0px;word-spacing:0px;fill:#b8860b;fill-opacity:1;stroke:none;stroke-width:1px;stroke-linecap:butt;stroke-linejoin:miter;stroke-opacity:1"
       id="flowRoot4136">
      <path
         d="m 362.1025,125.86859 q 1.04,0 1.6,0.96 0.64,0.96 0.64,2.64 0,3.12 -1.52,4.96 -3.84,4.64 -7.76,7.2 -3.92,2.48 -9.28,2.48 -5.92,0 -9.68,-3.44 -3.76,-3.52 -7.04,-10.88 -2.4,-5.28 -4,-7.84 -1.52,-2.64 -3.04,-3.68 -1.52,-1.12 -3.84,-1.36 l -0.88,5.92 q -1.68,11.44 -6.56,16.48 -4.8,5.04 -13.28,5.04 -5.52,0 -9.84,-2.64 -4.24,-2.72 -5.92,-6.88 -0.56,-1.44 -0.56,-3.12 0,-2.4 1.12,-4.16 1.12,-1.76 2.88,-1.76 1.04,0 1.76,0.56 0.72,0.48 1.36,1.76 2.48,4.64 4.32,6.48 1.92,1.84 4.72,1.84 3.2,0 5.44,-2.88 2.32,-2.96 3.28,-9.04 l 1.12,-7.6 -1.28,0 q -1.84,0 -2.88,-1.04 -1.04,-1.04 -1.04,-2.88 0,-2.08 1.04,-3.28 1.12,-1.28 2.72,-1.28 l 2.64,0 q 0.56,-3.92 0.8,-5.44 l 2.48,-17.999997 q -2.08,-0.24 -3.92,-0.24 -6.8,0 -10.32,2.4 -3.52,2.32 -3.52,6.72 0,2 0.4,3.28 0.48,1.2 1.2,2.72 0.32,0.639997 0.32,1.439997 0,1.76 -1.68,3.12 -1.6,1.28 -3.6,1.28 -2.56,0 -3.76,-2.24 -2.4,-4.239997 -2.4,-9.119997 0,-5.04 2.72,-9.2 2.8,-4.16 8.4,-6.64 5.6,-2.56 13.84,-2.56 3.6,0 6.56,0.4 3.04,0.4 6.64,1.52 3.92,1.2 3.92,4.48 0,4.4 -3.76,4.4 l -3.12,21.519997 q 9.36,-0.96 15.2,-8 5.92,-7.119997 9.84,-19.279997 0.72,-2.24 2.4,-3.44 1.76,-1.2 4.4,-1.2 2.24,0 3.44,1.04 1.28,0.96 1.28,2.8 0,0.56 -0.32,1.84 -4,13.2 -11.44,20.959997 -7.44,7.76 -16.24,10.32 3.04,0.72 4.96,2.16 2,1.44 3.36,3.6 1.36,2.08 3.12,5.84 2.48,5.28 4.64,7.52 2.16,2.16 5.04,2.16 2.56,0 4.88,-1.68 2.32,-1.76 5.84,-5.92 0.96,-1.12 2.16,-1.12 z"
         style="font-style:normal;font-variant:normal;font-weight:normal;font-stretch:normal;font-size:80px;font-family:Pacifico;-inkscape-font-specification:Pacifico;text-align:center;text-anchor:middle;fill:#b8860b;fill-opacity:1"
         id="path4166" />
      <path
         d="m 366.18,144.10859 q -4.96,0 -7.92,-3.6 -2.96,-3.6 -2.96,-9.44 0,-6.4 2.96,-12.08 2.96,-5.76 7.84,-9.2 4.96,-3.52 10.48,-3.52 1.76,0 2.32,0.72 0.64,0.64 1.04,2.4 1.68,-0.32 3.52,-0.32 3.92,0 3.92,2.8 0,1.68 -1.2,8 -1.84,9.2 -1.84,12.8 0,1.2 0.56,1.92 0.64,0.72 1.6,0.72 1.52,0 3.68,-1.92 2.16,-2 5.84,-6.4 0.96,-1.12 2.16,-1.12 1.04,0 1.6,0.96 0.64,0.96 0.64,2.64 0,3.2 -1.52,4.96 -3.28,4.08 -6.96,6.88 -3.68,2.8 -7.12,2.8 -2.64,0 -4.88,-1.76 -2.16,-1.84 -3.28,-4.96 -4.16,6.72 -10.48,6.72 z m 2.88,-8.08 q 1.76,0 3.36,-2.08 1.6,-2.08 2.32,-5.52 l 2.96,-14.72 q -3.36,0.08 -6.24,2.56 -2.8,2.4 -4.48,6.4 -1.68,4 -1.68,8.48 0,2.48 0.96,3.68 1.04,1.2 2.8,1.2 z"
         style="font-style:normal;font-variant:normal;font-weight:normal;font-stretch:normal;font-size:80px;font-family:Pacifico;-inkscape-font-specification:Pacifico;text-align:center;text-anchor:middle;fill:#b8860b;fill-opacity:1"
         id="path4168" />
      <path
         d="m 399.67625,144.10859 q -3.04,0 -4.32,-3.2 -1.2,-3.2 -1.2,-10.24 0,-10.4 2.96,-19.76 0.72,-2.32 2.32,-3.36 1.68,-1.12 4.64,-1.12 1.6,0 2.24,0.4 0.64,0.4 0.64,1.52 0,1.28 -1.2,5.76 -0.8,3.2 -1.28,5.6 -0.48,2.4 -0.8,5.92 2.64,-6.88 5.92,-11.2 3.28,-4.32 6.4,-6.16 3.2,-1.84 5.84,-1.84 5.2,0 5.2,5.2 0,3.12 -1.76,11.28 -1.52,6.96 -1.52,9.2 0,3.2 2.32,3.2 1.6,0 3.76,-1.92 2.24,-2 5.92,-6.4 0.96,-1.12 2.16,-1.12 1.04,0 1.6,0.96 0.64,0.96 0.64,2.64 0,3.2 -1.52,4.96 -3.44,4.24 -7.44,6.96 -3.92,2.72 -8.96,2.72 -4.08,0 -6.16,-2.32 -2.08,-2.4 -2.08,-6.88 0,-2.24 1.12,-8 1.04,-5.04 1.04,-6.96 0,-1.28 -0.88,-1.28 -1.04,0 -2.96,2.72 -1.84,2.64 -3.84,7.04 -1.92,4.4 -3.12,9.28 -0.88,3.76 -2.08,5.12 -1.12,1.28 -3.6,1.28 z"
         style="font-style:normal;font-variant:normal;font-weight:normal;font-stretch:normal;font-size:80px;font-family:Pacifico;-inkscape-font-specification:Pacifico;text-align:center;text-anchor:middle;fill:#b8860b;fill-opacity:1"
         id="path4170" />
      <path
         d="m 474.64375,126.02859 q 1.04,0 1.6,1.04 0.64,0.96 0.64,2.48 0,1.84 -0.56,2.88 -0.56,1.04 -1.76,1.84 l -15.36,10.32 q -3.04,16.56 -8,26 -4.88,9.52 -12.48,9.52 -4.08,0 -6.64,-2.56 -2.56,-2.48 -2.56,-6.56 0,-3.76 1.68,-7.68 1.76,-3.92 6.4,-9.04 4.72,-5.04 13.28,-11.6 l 0.24,-1.84 q 0.56,-2.96 1.28,-8.48 -1.6,5.76 -4.48,8.8 -2.88,2.96 -6.08,2.96 -3.6,0 -5.92,-3.28 -2.24,-3.36 -2.24,-8.32 0,-6 0.8,-10.96 0.8,-5.04 2.64,-10.64 0.8,-2.4 2.24,-3.44 1.44,-1.04 4.56,-1.04 1.76,0 2.4,0.56 0.72,0.56 0.72,1.68 0,0.64 -0.88,4.32 -0.8,2.96 -1.28,5.36 -0.64,3.28 -1.12,6.32 -0.48,2.96 -0.48,4.88 0,3.04 1.68,3.04 1.2,0 2.96,-2.4 1.84,-2.4 3.84,-7.28 2.08,-4.88 4,-12 0.64,-2.4 1.92,-3.44 1.36,-1.04 4,-1.04 1.84,0 2.56,0.48 0.72,0.48 0.72,1.6 0,2 -2.08,13.76 l -2.08,12.88 q 6.16,-4.64 12,-8.48 1.04,-0.64 1.84,-0.64 z m -35.04,46.32 q 2,0 4.48,-4.64 2.48,-4.64 4.96,-15.44 -6.16,5.2 -8.96,9.44 -2.72,4.32 -2.72,7.52 0,1.36 0.48,2.24 0.56,0.88 1.76,0.88 z"
         style="font-style:normal;font-variant:normal;font-weight:normal;font-stretch:normal;font-size:80px;font-family:Pacifico;-inkscape-font-specification:Pacifico;text-align:center;text-anchor:middle;fill:#b8860b;fill-opacity:1"
         id="path4172" />
      <path
         d="m 500.605,128.26859 q 1.04,0 1.6,0.96 0.64,0.96 0.64,2.64 0,2.88 -1.36,4.96 -2.24,3.44 -5.92,5.36 -3.6,1.92 -8.64,1.92 -7.68,0 -11.92,-4.56 -4.24,-4.64 -4.24,-12.48 0,-5.52 2.32,-10.24 2.32,-4.8 6.4,-7.6 4.16,-2.8 9.36,-2.8 4.64,0 7.44,2.8 2.8,2.72 2.8,7.44 0,5.52 -4,9.52 -3.92,3.92 -13.44,6.24 1.92,3.68 6.48,3.68 3.28,0 5.36,-1.52 2.16,-1.52 4.96,-5.12 0.96,-1.2 2.16,-1.2 z m -13.12,-14 q -2.96,0 -5.04,3.44 -2,3.44 -2,8.32 l 0,0.16 q 4.72,-1.12 7.44,-3.36 2.72,-2.24 2.72,-5.2 0,-1.52 -0.88,-2.4 -0.8,-0.96 -2.24,-0.96 z"
         style="font-style:normal;font-variant:normal;font-weight:normal;font-stretch:normal;font-size:80px;font-family:Pacifico;-inkscape-font-specification:Pacifico;text-align:center;text-anchor:middle;fill:#b8860b;fill-opacity:1"
         id="path4174" />
      <path
         d="m 325.38062,244.10859 q -9.51999,0 -16.56,-3.44 -7.04,-3.52 -10.8,-9.92 -3.76,-6.4 -3.76,-14.88 0,-11.76 4.4,-20.88 4.48,-9.12 12.08001,-14.08 7.59999,-5.04 16.88,-5.04 8.63999,0 13.12,4.48 4.47999,4.4 4.47999,11.68 0,4.88 -1.76,7.84 -1.68,2.96 -4.88,2.96 -2.24,0 -3.51999,-1.04 -1.28001,-1.04 -1.28001,-3.04 0,-0.72 0.32001,-2.64 0.47999,-2.4 0.47999,-3.84 0,-7.28 -7.76,-7.28 -5.28,0 -10.07999,3.44 -4.80001,3.44 -7.76001,10.16 -2.96,6.64 -2.96,15.84 0,9.6 5.36,14.88 5.36001,5.2 15.84,5.2 5.2,0 10.48,-1.28 5.36001,-1.36 11.84,-4.08 1.20001,-0.48 2,-0.48 1.28,0 1.92,0.96 0.64001,0.96 0.64001,2.48 0,4.88 -5.28001,7.2 -5.68,2.48 -11.84,3.68 -6.08,1.12 -11.6,1.12 z"
         style="font-style:normal;font-variant:normal;font-weight:normal;font-stretch:normal;font-size:80px;font-family:Pacifico;-inkscape-font-specification:Pacifico;text-align:center;text-anchor:middle;fill:#b8860b;fill-opacity:1"
         id="path4176" />
      <path
         d="m 353.50437,244.10859 q -3.03999,0 -4.32,-3.2 -1.2,-3.2 -1.2,-10.24 0,-10.4 2.96,-19.76 0.72,-2.32 2.32,-3.36 1.68,-1.12 4.64001,-1.12 1.59999,0 2.24,0.4 0.63999,0.4 0.63999,1.52 0,1.28 -1.19999,5.76 -0.80001,3.2 -1.28001,5.6 -0.48,2.4 -0.8,5.92 2.64001,-6.88 5.92,-11.2 3.28001,-4.32 6.4,-6.16 3.20001,-1.84 5.84,-1.84 5.2,0 5.2,5.2 0,1.04 -0.71999,5.04 -0.64001,3.2 -0.64001,4 0,2.8 2,2.8 2.24,0 5.76,-3.52 1.04,-1.04 2.16,-1.04 1.04001,0 1.60001,0.96 0.63999,0.88 0.63999,2.4 0,2.96 -1.6,4.64 -2.23999,2.32 -5.28,4 -2.95999,1.6 -6.31999,1.6 -4.24001,0 -6.48001,-2.16 -2.16,-2.16 -2.16,-5.84 0,-1.2 0.24,-2.4 0.16,-1.6 0.16,-2.16 0,-1.28 -0.87999,-1.28 -1.2,0 -3.2,2.72 -1.92001,2.64 -3.84001,7.04 -1.92,4.4 -3.12,9.28 -0.88,3.76 -2.08,5.12 -1.12,1.28 -3.6,1.28 z"
         style="font-style:normal;font-variant:normal;font-weight:normal;font-stretch:normal;font-size:80px;font-family:Pacifico;-inkscape-font-specification:Pacifico;text-align:center;text-anchor:middle;fill:#b8860b;fill-opacity:1"
         id="path4178" />
      <path
         d="m 392.39062,244.10859 q -3.6,0 -5.92,-3.28 -2.24,-3.36 -2.24,-8.32 0,-6 0.8,-10.96 0.8,-5.04 2.64,-10.64 0.8,-2.4 2.24,-3.44 1.44,-1.04 4.56,-1.04 1.76,0 2.40001,0.56 0.71999,0.56 0.71999,1.68 0,0.64 -0.88,4.32 -0.8,2.96 -1.27999,5.36 -1.60001,8.4 -1.60001,11.2 0,1.68 0.4,2.4 0.4,0.64 1.28,0.64 1.2,0 2.96,-2.4 1.84001,-2.4 3.84001,-7.28 2.07999,-4.88 4,-12 0.63999,-2.4 1.92,-3.44 1.35999,-1.04 4,-1.04 1.83999,0 2.55999,0.48 0.72,0.4 0.72,1.6 0,2 -2,10.96 -2.24,10.24 -2.24,12.64 0,1.52 0.64,2.4 0.64001,0.8 1.68,0.8 1.6,0 3.76,-1.92 2.24,-2 5.92,-6.4 0.96001,-1.12 2.16001,-1.12 1.03999,0 1.59999,0.96 0.64,0.96 0.64,2.64 0,3.2 -1.52,4.96 -3.44,4.24 -7.44,6.96 -3.92,2.72 -8.95999,2.72 -3.84001,0 -5.68001,-2.96 -1.75999,-2.96 -1.75999,-8.32 -1.36001,5.44 -4.08001,8.4 -2.72,2.88 -5.84,2.88 z"
         style="font-style:normal;font-variant:normal;font-weight:normal;font-stretch:normal;font-size:80px;font-family:Pacifico;-inkscape-font-specification:Pacifico;text-align:center;text-anchor:middle;fill:#b8860b;fill-opacity:1"
         id="path4180" />
      <path
         d="m 436.14188,245.86859 q -4.16001,0 -6.40001,-1.92 -2.15999,-1.92 -2.15999,-4.32 0,-2.08 1.51999,-3.6 1.52,-1.52 4.48001,-1.52 1.03999,0 2.39999,0.24 1.44,0.16 2.16001,0.24 -0.08,-2.08 -0.96001,-3.92 -0.8,-1.84 -2.08,-3.52 -1.28,-1.76 -2.4,-3.04 -2.48,4.72 -4.96,7.84 -2.39999,3.12 -5.27999,5.92 -1.44,1.44 -3.04001,1.44 -1.27999,0 -2.07999,-0.88 -0.80001,-0.96 -0.80001,-2.32 0,-1.6 1.12,-2.96 l 1.04,-1.28 q 4.4,-5.44 6.64001,-8.96 1.35999,-2.32 3.19999,-6.16 1.84,-3.92 3.60001,-8.08 1.51999,-3.52 6.32,-3.52 2.23999,0 3.12,0.4 0.88,0.4 0.88,1.28 0,0.48 -0.32,1.52 -0.32001,1.04 -0.88001,2.08 -1.44,2.88 -1.44,4.88 0,1.2 0.8,2.64 0.88,1.44 2.64,3.6 2.56,3.36 3.84,5.76 1.36001,2.32 1.36001,5.12 0,0.8 -0.16001,2.24 3.92,-1.52 9.2,-8.08 0.96001,-1.12 2.16,-1.12 1.04,0 1.60001,0.96 0.64,0.96 0.64,2.64 0,3.04 -1.52001,4.96 -4,4.96 -7.68,6.8 -3.6,1.76 -8.96,1.92 -3.2,2.72 -7.59999,2.72 z"
         style="font-style:normal;font-variant:normal;font-weight:normal;font-stretch:normal;font-size:80px;font-family:Pacifico;-inkscape-font-specification:Pacifico;text-align:center;text-anchor:middle;fill:#b8860b;fill-opacity:1"
         id="path4182" />
      <path
         d="m 483.80063,206.42859 q 2.56,0 3.83999,1.36 1.36001,1.28 1.36001,3.84 0,2.08 -0.88,7.84 -0.80001,4.88 -1.28001,9.28 -0.47999,4.32 -0.47999,9.68 0,3.04 -1.28001,4.4 -1.2,1.28 -4,1.28 -2.64,0 -3.83999,-1.36 -1.20001,-1.36 -1.20001,-4.08 0,-3.2 1.12,-10.56 0.96001,-6.4 0.96001,-8.16 0,-1.28 -0.88,-1.28 -1.04001,0 -2.96001,2.72 -1.91999,2.64 -3.84,7.04 -1.92,4.4 -3.12,9.28 -0.88,3.76 -2.07999,5.12 -1.12,1.28 -3.60001,1.28 -2.48,0 -3.68,-1.76 -1.12,-1.84 -1.52,-5.6 -0.4,-3.76 -0.4,-11.04 0,-12.32 2.48,-25.68 2.56,-13.36 7.44,-22.4 4.96,-9.12 11.84001,-9.12 3.67999,0 5.91999,3.2 2.32,3.12 2.32,8.16 0,8.08 -4.72,16.8 -4.72,8.64 -15.36,20.24 -0.24,4.16 -0.24,8.56 2.64001,-6.8 5.84001,-11.04 3.27999,-4.32 6.39999,-6.16 3.2,-1.84 5.84001,-1.84 z m -7.68,-30 q -1.44,0 -3.20001,4.16 -1.76,4.08 -3.44,11.12 -1.6,6.96 -2.64,15.2 4.96001,-5.84 8.16001,-12.72 3.27999,-6.88 3.27999,-12.48 0,-2.56 -0.56,-3.92 -0.56,-1.36 -1.59999,-1.36 z"
         style="font-style:normal;font-variant:normal;font-weight:normal;font-stretch:normal;font-size:80px;font-family:Pacifico;-inkscape-font-specification:Pacifico;text-align:center;text-anchor:middle;fill:#b8860b;fill-opacity:1"
         id="path4184" />
    </g>
  </g>
</svg>
